<?xml version="1.0" encoding="utf-8"?>
<!-- Generator: Adobe Illustrator 23.1.0, SVG Export Plug-In . SVG Version: 6.00 Build 0)  -->
<svg version="1.1" id="Layer_1" xmlns="http://www.w3.org/2000/svg" xmlns:xlink="http://www.w3.org/1999/xlink" x="0px" y="0px"
	 viewBox="0 0 690 690" style="enable-background:new 0 0 690 690;" xml:space="preserve">
<g>
	<path d="M345,0C154.46,0,0,154.46,0,345s154.46,345,345,345s345-154.46,345-345S535.54,0,345,0z M345,645
		C179.31,645,45,510.69,45,345S179.31,45,345,45s300,134.31,300,300S510.69,645,345,645z"/>
	<path d="M124.63,105.66c0,0,247.44,50.08,278.79,56.05c28.3,5.39,46.2,13.77,55.94,35.31c9.45,20.88,4.71,40.4-5.65,59.38
		c-25.58,46.84-51.18,93.68-76.77,140.52c-31.01,56.79-62.01,113.59-93.64,171.52c9.75,5.67,19,10.27,27.27,16.23
		c3.36,2.42,7.29,8.9,6.18,11.54c-1.68,4-7.34,8.52-11.61,8.84c-14.43,1.08-28.98,0.41-46.06,0.41c1.53-17.81,0.91-33.84,4.56-48.83
		c13.67-56.02,28.76-111.69,43.27-167.5c9.43-36.26,18.78-72.55,28.63-110.6c-77.73-3.39-213.54-6.69-290.52-10.05L124.63,105.66z"
		/>
	<polygon points="481.6,110.4 465,132 479.7,135 465,159.6 502.7,128.2 488.84,125.03 505,110.4 	"/>
	<polygon points="538.21,161.4 511.61,167.28 520.94,179.02 493.87,188.42 542.93,188.6 534.35,177.26 556.13,176.44 	"/>
</g>
</svg>
